/* XPM */
static char *warning[] = {
/* width height num_colors chars_per_pixel */
"    48    48      247            2",
/* colors */
".. c None",
".# c #010000",
".a c #010100",
".b c #010101",
".c c #020100",
".d c #020101",
".e c #020200",
".f c #020202",
".g c #030100",
".h c #040300",
".i c #050400",
".j c #070400",
".k c #090700",
".l c #090701",
".m c #0a0800",
".n c #0b0900",
".o c #0d0302",
".p c #0d0403",
".q c #0e0b00",
".r c #0f0302",
".s c #100d01",
".t c #120402",
".u c #130f00",
".v c #130f01",
".w c #151001",
".x c #180504",
".y c #190503",
".z c #190604",
".A c #191300",
".B c #1a0705",
".C c #1c0502",
".D c #1d0503",
".E c #1d0603",
".F c #1d1602",
".G c #1e1702",
".H c #200705",
".I c #210705",
".J c #220704",
".K c #220705",
".L c #241c03",
".M c #251d02",
".N c #251d03",
".O c #271e02",
".P c #292003",
".Q c #2c2303",
".R c #2d0906",
".S c #2d0a08",
".T c #310a07",
".U c #312604",
".V c #312605",
".W c #320a06",
".X c #330905",
".Y c #330a06",
".Z c #332704",
".0 c #370904",
".1 c #382c05",
".2 c #3a0c08",
".3 c #3b0c09",
".4 c #3c0b05",
".5 c #3c0b08",
".6 c #3c0c09",
".7 c #3c2e05",
".8 c #3d0c09",
".9 c #3e0c08",
"#. c #400c07",
"## c #403104",
"#a c #403105",
"#b c #410c07",
"#c c #410d08",
"#d c #413206",
"#e c #423305",
"#f c #430c06",
"#g c #453506",
"#h c #470c06",
"#i c #4b3a07",
"#j c #4d100c",
"#k c #4e3d06",
"#l c #513f07",
"#m c #520e07",
"#n c #524007",
"#o c #55110c",
"#p c #56100b",
"#q c #571009",
"#r c #571109",
"#s c #58120d",
"#t c #5d110b",
"#u c #5e120e",
"#v c #601109",
"#w c #60120b",
"#x c #675009",
"#y c #69520a",
"#z c #6a130b",
"#A c #6a150e",
"#B c #6c1209",
"#C c #6d140c",
"#D c #6e1308",
"#E c #6e140b",
"#F c #6e140c",
"#G c #6e150c",
"#H c #6f1309",
"#I c #6f140b",
"#J c #71140b",
"#K c #71570a",
"#L c #73160e",
"#M c #731711",
"#N c #745a0c",
"#O c #78150c",
"#P c #781812",
"#Q c #7a1710",
"#R c #7a6109",
"#S c #7b1912",
"#T c #7c610c",
"#U c #801810",
"#V c #801a13",
"#W c #851b14",
"#X c #86180d",
"#Y c #861910",
"#Z c #861b13",
"#0 c #871b12",
"#1 c #88170b",
"#2 c #881a11",
"#3 c #891a11",
"#4 c #8a170b",
"#5 c #8a180c",
"#6 c #8a190f",
"#7 c #8b170b",
"#8 c #8b1c15",
"#9 c #8c1c14",
"a. c #8d1b12",
"a# c #8f1b10",
"aa c #901a0f",
"ab c #911a0f",
"ac c #921a0e",
"ad c #931b10",
"ae c #971e15",
"af c #981d14",
"ag c #981f17",
"ah c #991d13",
"ai c #991f16",
"aj c #9a1c0f",
"ak c #9a1f15",
"al c #9b1b0c",
"am c #9b1b0e",
"an c #9b1e14",
"ao c #9b1f17",
"ap c #9c1e13",
"aq c #9c1f16",
"ar c #9d1e12",
"as c #9d1f15",
"at c #9e1d11",
"au c #9e1e14",
"av c #9f1d10",
"aw c #9f1e13",
"ax c #a01d0f",
"ay c #a01e12",
"az c #a11c0e",
"aA c #a11d10",
"aB c #a11d11",
"aC c #a21d0f",
"aD c #a21d10",
"aE c #a31c0e",
"aF c #a31d0f",
"aG c #a41c0e",
"aH c #a51c0c",
"aI c #a61d0f",
"aJ c #a71c0d",
"aK c #a71d0e",
"aL c #a91d0f",
"aM c #ab4216",
"aN c #b14010",
"aO c #b21f10",
"aP c #b31f0f",
"aQ c #b62111",
"aR c #b72010",
"aS c #b9200f",
"aT c #b92111",
"aU c #b95b13",
"aV c #b9930e",
"aW c #ba2010",
"aX c #bb5b11",
"aY c #bd2110",
"aZ c #bd2111",
"a0 c #bd9312",
"a1 c #bf2212",
"a2 c #bf6f16",
"a3 c #c16916",
"a4 c #c16f14",
"a5 c #c26f12",
"a6 c #c39b0f",
"a7 c #c49813",
"a8 c #c56b12",
"a9 c #c57e16",
"b. c #c77e14",
"b# c #c79a14",
"ba c #c82312",
"bb c #c87e14",
"bc c #c98517",
"bd c #ca2310",
"be c #cb8617",
"bf c #cb8914",
"bg c #cb9e13",
"bh c #cc8614",
"bi c #cc8615",
"bj c #cd2513",
"bk c #cd8713",
"bl c #cf8812",
"bm c #cf8c12",
"bn c #d08c13",
"bo c #d12412",
"bp c #d18912",
"bq c #d22411",
"br c #d22614",
"bs c #d28814",
"bt c #d42512",
"bu c #d42513",
"bv c #d52511",
"bw c #d7a816",
"bx c #d7a81a",
"by c #d82715",
"bz c #d8a51c",
"bA c #d8a919",
"bB c #d8a91a",
"bC c #d92613",
"bD c #d9aa19",
"bE c #da2511",
"bF c #daaa16",
"bG c #daaa17",
"bH c #db2612",
"bI c #dbaa16",
"bJ c #dbab17",
"bK c #dc2613",
"bL c #dcab15",
"bM c #dcae11",
"bN c #de2612",
"bO c #deac13",
"bP c #dfad13",
"bQ c #dfb112",
"bR c #e02712",
"bS c #e0ad11",
"bT c #e0ae14",
"bU c #e0b213",
"bV c #e1ae12",
"bW c #e82814",
"bX c #ea2915",
"bY c #ec2913",
"bZ c #ec2a16",
"b0 c #ef2914",
/* pixels */
"................................................................................................",
"................................................................................................",
"................................................................................................",
"................................................................................................",
"................................................................................................",
"................................................................................................",
"................................................................................................",
".................................................CaYal.t........................................",
"...............................................CbHbqaL#v........................................",
".............................................#aJbvaKazam.4......................................",
"...........................................##7bRaPaGaGaz#5.r....................................",
"...........................................0bYaSaGaGaNaGaj#m....................................",
".........................................#bEbdaGaGaXa5aFaxac.D..................................",
".......................................##4bHaIaGaGbSbQaFaFax#J..................................",
".......................................0bYaRaGaEbVbQbQbsaFavab.X................................",
".....................................#bEbdaGaGa8bQbQbQbQaAaDav#E................................",
"...................................##HbNaIaGaGbSbMaVbMbOblaDavaa.X..............................",
"...................................Cb0aWaGaGbpa6.a.q#abObOaDaBat#F..............................",
".................................#aHboaGaGaGbQ#R.j.u.ebObObkaBataa.Y............................",
".................................0bWaOaGaGbUbQ.Q.g.#.AbObObLaBaBar#F............................",
"...............................#bEbaaGaGbsbQbQ.M.a.h.PbObLbLbkayara#.Y..........................",
".............................##DbKaIaGaFbQbQbQ.O.a.F#ebLbLbLbLayayar#C..........................",
".............................#btaZaGaGbnbQbQbO#k.a###gbLbLbLbIbhayar#3.W........................",
"...........................##4bCaIaGaFbQbQbQbO.G.a.N#dbLbLbIbIbIayawah#q........................",
"...........................CbXaRaGaCbUbQbQbObO.k.a.n.NbLbIbIbIbIbiawap#Y.y......................",
".........................##1buaGaFbsbQbQbObObO.i.s.m.ZbIbIbIbIbGbGawawaf#p......................",
".........................EbXaRaFaFbQbQbObObObO.i.v.h#nbIbIbIbGbGbGbiauan#Q.o....................",
".......................##1buaFaFbnbQbObObObObL.1#l.w#KbIbIbGbGbGbGbAauaua..5....................",
".......................EbXaRaFaFbQbObObObObLbLa0#x.Ub#bIbIbGbGbGbAbAbeauak#A.b..................",
".....................##1buaFaFbnbQbObObObLbLbLbLbIbIbIbIbGbGbGbGbAbAbAasak#0.T..................",
".....................EbXaQaFaFbQbObObObLbLbLbLbg.N.La7bGbGbGbGbAbAbAbxa3asae#o.b................",
"...................##1braFaFbmbObObObObLbLbLbI#i.c.c#ybGbGbGbAbAbAbAbxbcasai#S.z................",
"...................dbZaQaFaFbObObObObLbLbLbLbI.7.h.l#NbGbGbAbAbAbAbxbxbxasaq#9.2................",
".................##BbyaFaFbbbTbPbObLbLbLbLbIbIa0.V#TbwbGbAbAbAbAbxbxbxbxa2aqai#u................",
".................#aTa1aFaDaDaDaDaBaBaBaUa4b.bfbFbJbJbJbDbDbDbDbBbBbBbBbza9aMai#P.x..............",
".................#bjaFaxaDaDaDaBaBaBaBayayayayawawawawauauauasasasasaqaqaqaqao#8.2..............",
".................##f#h#z#I#O#X#6adatarayayayawawawawauauauasasasasaqaqaqaqaoaoag#s..............",
"...................b.b.f.o.J.R#.#b#r#t#w#G#L#L#L#U#2#2#2#2#0#0#0#Z#Z#Z#Z#W#W#V#M#j.b.b..........",
".......................b.b.b.f.f.f.f.f.f.p.I.H.H.K#c.9.9.9.9.9.9.8.8.8.6.6.6.3.S.B.b............",
".............................b.b.b.b.b.b.b.f.f.f.f.f.f.f.f.f.f.f.f.f.f.f.f.f.f.f.f..............",
"................................................................................................",
"................................................................................................",
"................................................................................................",
"................................................................................................",
"................................................................................................",
"................................................................................................",
"................................................................................................",
"................................................................................................"
};
